<svg width="16" height="17" viewBox="0 0 16 17" fill="none" xmlns="http://www.w3.org/2000/svg">
<path d="M13.6414 8.63901C13.6414 6.98107 13.0622 5.57452 11.9038 4.41934C10.746 3.26474 9.33583 2.68743 7.67328 2.68743V0.986984C8.73902 0.986984 9.7374 1.18877 10.6684 1.59234C11.5989 1.99648 12.4088 2.54233 13.0983 3.22988C13.7872 3.91686 14.3343 4.72457 14.7395 5.65302C15.1442 6.5809 15.3466 7.57623 15.3466 8.63901H13.6414ZM10.231 8.63901C10.231 7.93049 9.98237 7.32825 9.48503 6.83228C8.98769 6.33632 8.38377 6.08834 7.67328 6.08834V4.38789C8.85269 4.38789 9.85818 4.80223 10.6897 5.63091C11.5207 6.46017 11.9362 7.46287 11.9362 8.63901H10.231ZM14.4514 16.3336C12.6183 16.3336 10.8315 15.9297 9.09114 15.122C7.35015 14.3143 5.80839 13.2373 4.46585 11.8911C3.12274 10.5449 2.0428 9.00376 1.22602 7.2676C0.408674 5.53201 0 3.75022 0 1.92223V1.47586C0 1.31999 0.0142097 1.1712 0.0426293 1.0295H5.03026L5.81891 5.30188L3.38903 7.74628C3.98584 8.76655 4.73555 9.72305 5.63816 10.6158C6.54019 11.5085 7.53119 12.2808 8.61113 12.9327L11.0836 10.467L15.3466 11.3172V16.291C15.2045 16.3052 15.0553 16.316 14.899 16.3233C14.7427 16.3302 14.5934 16.3336 14.4514 16.3336Z" fill="black"/>
</svg>
