<svg width="15" height="18" viewBox="0 0 15 18" fill="none" xmlns="http://www.w3.org/2000/svg">
<path d="M7.16173 8.69642C7.6541 8.69642 8.07575 8.52597 8.42667 8.18507C8.777 7.84475 8.95216 7.43544 8.95216 6.95714C8.95216 6.47884 8.777 6.06924 8.42667 5.72834C8.07575 5.38802 7.6541 5.21786 7.16173 5.21786C6.66936 5.21786 6.24801 5.38802 5.89769 5.72834C5.54676 6.06924 5.3713 6.47884 5.3713 6.95714C5.3713 7.43544 5.54676 7.84475 5.89769 8.18507C6.24801 8.52597 6.66936 8.69642 7.16173 8.69642ZM7.16173 17.3928C4.75957 15.4071 2.96555 13.5626 1.77969 11.8593C0.59323 10.1565 0 8.58047 0 7.13107C0 4.95697 0.720052 3.22494 2.16016 1.93498C3.59967 0.645012 5.26686 3.05176e-05 7.16173 3.05176e-05C9.05661 3.05176e-05 10.7238 0.645012 12.1633 1.93498C13.6034 3.22494 14.3235 4.95697 14.3235 7.13107C14.3235 8.58047 13.7305 10.1565 12.5447 11.8593C11.3582 13.5626 9.56389 15.4071 7.16173 17.3928Z" fill="black"/>
</svg>
