<svg width="17" height="17" viewBox="0 0 17 17" fill="none" xmlns="http://www.w3.org/2000/svg">
<path d="M0 13.9835C0 15.3749 1.06403 16.439 2.45545 16.439H13.9142C15.3056 16.439 16.3697 15.3749 16.3697 13.9835V7.43566H0V13.9835ZM13.9142 1.70627H12.2773V0.887789C12.2773 0.396699 11.9499 0.0693054 11.4588 0.0693054C10.9677 0.0693054 10.6403 0.396699 10.6403 0.887789V1.70627H5.72938V0.887789C5.72938 0.396699 5.40199 0.0693054 4.9109 0.0693054C4.41981 0.0693054 4.09242 0.396699 4.09242 0.887789V1.70627H2.45545C1.06403 1.70627 0 2.7703 0 4.16172V5.79869H16.3697V4.16172C16.3697 2.7703 15.3056 1.70627 13.9142 1.70627Z" fill="black"/>
</svg>
