<svg width="16" height="17" viewBox="0 0 16 17" fill="none" xmlns="http://www.w3.org/2000/svg">
<path d="M7.18558 9.8218H0.798398V14.7327C0.798398 15.1669 0.966631 15.5832 1.26609 15.8902C1.56555 16.1972 1.9717 16.3697 2.39519 16.3697H13.5728C13.9963 16.3697 14.4024 16.1972 14.7019 15.8902C15.0013 15.5832 15.1696 15.1669 15.1696 14.7327V9.8218H8.78238V11.4588H7.18558V9.8218ZM7.18558 9.00332H0V4.09242C0 3.19209 0.718558 2.45545 1.5968 2.45545H4.79039V1.63697C4.79039 1.20282 4.95862 0.786447 5.25808 0.479457C5.55754 0.172466 5.96369 0 6.38718 0L9.58078 0C10.0043 0 10.4104 0.172466 10.7099 0.479457C11.0093 0.786447 11.1776 1.20282 11.1776 1.63697V2.45545H14.3712C14.7947 2.45545 15.2008 2.62792 15.5003 2.93491C15.7997 3.2419 15.968 3.65827 15.968 4.09242V9.00332H8.78238V7.36635H7.18558V9.00332ZM9.58078 2.45545V1.63697H6.38718V2.45545H9.58078Z" fill="black"/>
</svg>
