<svg width="17" height="14" viewBox="0 0 17 14" fill="none" xmlns="http://www.w3.org/2000/svg">
<path d="M14.7327 3.75758L8.18484 7.91395L1.63697 3.75758V2.09504L8.18484 6.2514L14.7327 2.09504M14.7327 0.432495H1.63697C0.72845 0.432495 0 1.17233 0 2.09504V12.0703C0 12.5112 0.172466 12.9341 0.479456 13.2459C0.786447 13.5577 1.20282 13.7329 1.63697 13.7329H14.7327C15.1669 13.7329 15.5832 13.5577 15.8902 13.2459C16.1972 12.9341 16.3697 12.5112 16.3697 12.0703V2.09504C16.3697 1.65411 16.1972 1.23123 15.8902 0.919443C15.5832 0.607655 15.1669 0.432495 14.7327 0.432495Z" fill="black"/>
</svg>
